{
  "accessors": [
    {
      "bufferView": 2,
      "componentType": 5126,
      "count": 10093,
      "max": [
        37.255416870117188,
        48.001239776611328,
        33.784454345703125
      ],
      "min": [
        -44.430137634277344,
        0.54047870635986328,
        -41.226661682128906
      ],
      "type": "VEC3"
    },
    {
      "bufferView": 2,
      "byteOffset": 121116,
      "componentType": 5126,
      "count": 10093,
      "max": [
        1,
        1,
        1
      ],
      "min": [
        -1,
        -1,
        -1
      ],
      "type": "VEC3"
    },
    {
      "bufferView": 3,
      "componentType": 5126,
      "count": 10093,
      "max": [
        1,
        1,
        1,
        1
      ],
      "min": [
        -1,
        -1,
        -1,
        -1
      ],
      "type": "VEC4"
    },
    {
      "bufferView": 1,
      "componentType": 5126,
      "count": 10093,
      "max": [
        0.98052012920379639,
        1.164909839630127
      ],
      "min": [
        0.0023656487464904785,
        0.0068434551358222961
      ],
      "type": "VEC2"
    },
    {
      "bufferView": 0,
      "componentType": 5125,
      "count": 32799,
      "max": [
        10092
      ],
      "min": [
        0
      ],
      "type": "SCALAR"
    },
    {
      "bufferView": 2,
      "byteOffset": 242232,
      "componentType": 5126,
      "count": 436,
      "max": [
        17.616279602050781,
        30.139184951782227,
        8.2827873229980469
      ],
      "min": [
        -24.852302551269531,
        1.6526393890380859,
        -5.0449867248535156
      ],
      "type": "VEC3"
    },
    {
      "bufferView": 2,
      "byteOffset": 247464,
      "componentType": 5126,
      "count": 436,
      "max": [
        1,
        1,
        1
      ],
      "min": [
        -1,
        -1,
        -1
      ],
      "type": "VEC3"
    },
    {
      "bufferView": 3,
      "byteOffset": 161488,
      "componentType": 5126,
      "count": 436,
      "max": [
        1,
        1,
        1,
        1
      ],
      "min": [
        -0.71349388360977173,
        -1,
        -1,
        1
      ],
      "type": "VEC4"
    },
    {
      "bufferView": 1,
      "byteOffset": 80744,
      "componentType": 5126,
      "count": 436,
      "max": [
        0.13065099716186523,
        0.76594787836074829
      ],
      "min": [
        0.034191608428955078,
        0.66991227865219116
      ],
      "type": "VEC2"
    },
    {
      "bufferView": 1,
      "byteOffset": 84232,
      "componentType": 5126,
      "count": 436,
      "max": [
        0.13065099716186523,
        0.76594787836074829
      ],
      "min": [
        0.034191608428955078,
        0.66991227865219116
      ],
      "type": "VEC2"
    },
    {
      "bufferView": 0,
      "byteOffset": 131196,
      "componentType": 5125,
      "count": 1182,
      "max": [
        435
      ],
      "min": [
        0
      ],
      "type": "SCALAR"
    }
  ],
  "asset": {
    "extras": {
      "author": "getsundar (https://sketchfab.com/getsundar)",
      "license": "CC-BY-4.0 (http://creativecommons.org/licenses/by/4.0/)",
      "source": "https://sketchfab.com/models/aeea7f2c65c54970839af304847da4a3",
      "title": "Seat Combine"
    },
    "generator": "Sketchfab-3.54.8-rc1",
    "version": "2.0"
  },
  "bufferViews": [
    {
      "buffer": 0,
      "byteLength": 135924,
      "byteOffset": 0,
      "name": "floatBufferViews",
      "target": 34963
    },
    {
      "buffer": 0,
      "byteLength": 87720,
      "byteOffset": 135924,
      "byteStride": 8,
      "name": "floatBufferViews",
      "target": 34962
    },
    {
      "buffer": 0,
      "byteLength": 252696,
      "byteOffset": 223644,
      "byteStride": 12,
      "name": "floatBufferViews",
      "target": 34962
    },
    {
      "buffer": 0,
      "byteLength": 168464,
      "byteOffset": 476340,
      "byteStride": 16,
      "name": "floatBufferViews",
      "target": 34962
    }
  ],
  "buffers": [
    {
      "byteLength": 644804,
      "uri": "scene.bin"
    }
  ],
  "materials": [
    {
      "doubleSided": true,
      "emissiveFactor": [
        0,
        0,
        0
      ],
      "name": "lambert51",
      "pbrMetallicRoughness": {
        "baseColorFactor": [
          1,
          1,
          1,
          1
        ],
        "metallicFactor": 0,
        "roughnessFactor": 0.59999999999999998
      }
    },
    {
      "doubleSided": true,
      "emissiveFactor": [
        0,
        0,
        0
      ],
      "name": "boxlambert51",
      "pbrMetallicRoughness": {
        "baseColorFactor": [
          1,
          1,
          1,
          1
        ],
        "metallicFactor": 0,
        "roughnessFactor": 0.59999999999999998
      }
    }
  ],
  "meshes": [
    {
      "name": "polySurface43_lambert51_0",
      "primitives": [
        {
          "attributes": {
            "NORMAL": 1,
            "POSITION": 0,
            "TANGENT": 2,
            "TEXCOORD_0": 3
          },
          "indices": 4,
          "material": 0,
          "mode": 4
        }
      ]
    },
    {
      "name": "polySurface43_box:lambert51_0",
      "primitives": [
        {
          "attributes": {
            "NORMAL": 6,
            "POSITION": 5,
            "TANGENT": 7,
            "TEXCOORD_0": 8,
            "TEXCOORD_1": 9
          },
          "indices": 10,
          "material": 1,
          "mode": 4
        }
      ]
    }
  ],
  "nodes": [
    {
      "children": [
        1
      ],
      "name": "RootNode (gltf orientation matrix)",
      "rotation": [
        -0.70710678118654746,
        -0,
        -0,
        0.70710678118654757
      ]
    },
    {
      "children": [
        2
      ],
      "name": "RootNode (model correction matrix)"
    },
    {
      "children": [
        3
      ],
      "matrix": [
        1,
        0,
        0,
        0,
        0,
        0,
        1,
        0,
        0,
        -1,
        0,
        0,
        0,
        0,
        0,
        1
      ],
      "name": "seat_combine.fbx"
    },
    {
      "children": [
        4
      ],
      "name": "RootNode"
    },
    {
      "children": [
        5,
        6
      ],
      "name": "polySurface43"
    },
    {
      "mesh": 0,
      "name": "polySurface43_lambert51_0"
    },
    {
      "mesh": 1,
      "name": "polySurface43_box:lambert51_0"
    }
  ],
  "scene": 0,
  "scenes": [
    {
      "name": "OSG_Scene",
      "nodes": [
        0
      ]
    }
  ]
}

